<?xml version="1.0" standalone="no"?>
<!DOCTYPE svg PUBLIC "-//W3C//DTD SVG 20010904//EN"
 "http://www.w3.org/TR/2001/REC-SVG-20010904/DTD/svg10.dtd">
<svg version="1.0" xmlns="http://www.w3.org/2000/svg"
 width="512.000000pt" height="512.000000pt" viewBox="0 0 512.000000 512.000000"
 preserveAspectRatio="xMidYMid meet">

<g transform="translate(0.000000,512.000000) scale(0.100000,-0.100000)"
fill="#000000" stroke="none">
<path d="M1113 5106 c-107 -35 -167 -90 -208 -192 -23 -56 -25 -58 -81 -75
-216 -67 -367 -336 -367 -654 -1 -133 15 -209 64 -311 37 -78 127 -164 201
-192 l52 -19 26 -85 c37 -119 81 -191 172 -281 l78 -78 0 -62 0 -63 -62 -13
c-316 -65 -591 -318 -691 -636 -42 -135 -47 -207 -47 -724 0 -460 1 -489 18
-504 17 -15 72 -17 585 -17 l567 0 0 -375 c0 -362 1 -376 20 -395 20 -20 33
-20 803 -20 l783 0 42 -64 c96 -146 265 -268 438 -318 102 -29 286 -31 383 -4
255 70 451 253 538 501 26 74 28 91 28 235 -1 141 -3 162 -27 235 -15 44 -43
106 -63 139 -19 32 -35 60 -35 62 0 2 115 4 255 4 l255 0 15 24 c15 22 16 83
13 553 -4 503 -5 532 -25 605 -51 181 -124 311 -246 436 -126 128 -272 213
-442 257 l-90 23 -3 55 -3 56 88 88 c99 98 148 181 179 301 17 67 20 72 58 89
92 41 189 169 215 284 16 66 13 220 -5 307 -98 479 -494 801 -1029 838 -123 8
-198 -6 -262 -49 -61 -42 -102 -94 -123 -158 -18 -51 -19 -53 -71 -66 -197
-50 -329 -253 -354 -540 l-7 -80 -37 9 c-20 5 -115 12 -212 15 l-177 6 -6 46
c-21 149 -112 324 -238 457 -168 175 -374 286 -631 339 -114 23 -282 29 -334
11z m-94 -846 c75 -51 153 -86 255 -112 71 -18 117 -22 384 -25 l303 -5 -3
-64 -3 -65 -57 -23 c-191 -78 -298 -292 -298 -595 l0 -119 -37 -14 c-23 -8
-81 -13 -148 -12 -91 0 -121 5 -175 25 -138 52 -242 146 -304 274 -51 104 -56
146 -56 460 0 244 2 286 16 299 25 26 60 19 123 -24z m2270 5 c66 -47 164 -91
264 -117 72 -19 117 -22 385 -25 l302 -5 0 -212 c0 -234 -8 -287 -61 -392 -60
-120 -165 -212 -299 -263 -86 -32 -256 -36 -338 -7 l-53 18 7 68 c13 132 -21
219 -102 261 -40 22 -42 25 -58 98 -20 96 -59 177 -124 264 l-52 68 0 120 c0
66 5 129 10 140 17 30 63 24 119 -16z m-1150 -835 c175 -140 392 -223 621
-236 94 -6 231 4 298 22 l22 6 0 -188 c0 -266 -27 -350 -149 -474 -274 -278
-727 -175 -870 198 -25 66 -25 73 -29 380 -5 385 -5 382 107 292z m-889 -294
c93 -26 196 -31 289 -12 46 10 84 16 85 14 21 -39 50 -123 53 -155 8 -70 -21
-148 -75 -202 -107 -107 -257 -107 -363 -1 -63 63 -79 118 -79 268 0 104 2
114 18 109 9 -3 42 -13 72 -21z m2708 -104 c-3 -115 -6 -133 -31 -185 -95
-193 -358 -194 -460 -2 -18 33 -22 61 -25 160 -1 66 1 126 7 134 8 12 19 11
77 -3 108 -28 198 -31 294 -12 47 10 91 22 100 26 40 24 43 16 38 -118z
m-2901 -115 c22 -130 97 -233 211 -289 59 -30 76 -33 152 -33 76 0 93 3 152
33 85 42 159 121 189 201 l21 59 62 -29 c33 -16 66 -29 73 -29 11 0 33 -58 33
-86 0 -7 20 -52 45 -102 34 -68 63 -108 116 -161 39 -39 75 -71 80 -71 5 0 9
-33 9 -74 l0 -74 -72 -16 c-217 -49 -428 -197 -554 -391 -91 -141 -140 -286
-151 -452 l-6 -93 -299 0 -298 0 0 434 c0 248 -4 445 -9 459 -13 33 -46 43
-76 23 -24 -16 -25 -20 -25 -146 l0 -130 -175 0 -175 0 0 134 c0 227 39 378
136 528 107 166 258 282 449 344 102 33 100 34 112 -39z m3087 47 c215 -54
416 -220 521 -429 66 -132 85 -218 92 -417 l6 -168 -176 0 -176 0 -3 127 c-3
126 -3 127 -29 142 -24 13 -29 13 -53 -2 l-26 -17 0 -445 0 -445 -31 0 c-23 0
-52 15 -103 55 -121 93 -254 144 -417 160 l-66 6 -18 65 c-85 313 -370 585
-687 655 l-58 12 0 67 0 67 83 84 c91 91 143 181 172 294 10 40 22 65 37 75
13 8 42 32 64 53 23 20 44 37 47 37 3 0 8 -19 12 -42 32 -186 208 -322 394
-304 174 16 311 152 336 334 4 28 9 52 12 52 3 0 33 -7 67 -16z m-1746 -651
c102 -30 287 -20 395 22 16 7 17 -3 17 -112 0 -76 -5 -137 -15 -169 -39 -131
-179 -203 -316 -162 -55 16 -118 73 -145 132 -21 46 -24 65 -24 185 0 116 2
132 15 127 9 -3 41 -13 73 -23z m-1688 -738 l0 -265 -175 0 -175 0 0 265 0
265 175 0 175 0 0 -265z m4050 0 l0 -265 -175 0 -175 0 0 265 0 265 175 0 175
0 0 -265z m-2125 183 c5 -16 95 -665 95 -689 0 -17 -157 -229 -170 -229 -12 0
-170 211 -170 227 0 16 97 647 105 681 5 20 11 22 71 22 43 0 66 -4 69 -12z
m1107 -575 c16 -14 18 -34 18 -190 l0 -173 173 0 c159 0 175 -2 191 -19 25
-27 17 -72 -14 -88 -17 -9 -77 -13 -187 -13 l-163 0 -2 -177 -3 -177 -26 -15
c-24 -13 -29 -13 -53 2 l-26 17 0 175 0 174 -175 3 c-191 3 -207 8 -207 64 0
49 20 54 209 54 l173 0 0 174 c0 145 3 177 16 190 20 21 53 20 76 -1z m-1874
-405 l2 -258 -170 0 -170 0 0 260 0 260 168 -2 167 -3 3 -257z"/>
</g>
</svg>
